<svg width="200" height="77" fill="none" xmlns="http://www.w3.org/2000/svg"><path d="M68.756 75.622c-.352 0-.91-.347-1.455-.901-.566-.577-.916-1.161-.976-1.376-.572-2.064-.437-4.17.412-6.436.66-1.76 1.746-3.612 3.422-5.83 2.648-3.508 5.682-6.692 8.028-9.075.695-.704 1.395-1.404 2.101-2.098l.062-.061.037-.079a132.962 132.962 0 004.637-10.89l.628-1.678-1.4 1.119a72.272 72.272 0 01-4.962 3.633l-.149.098c-2.758 1.842-5.61 3.745-8.664 3.745a7.257 7.257 0 01-3.01-.656c-.73-.326-1.793-1.447-1.725-2.215.08-.907.218-1.803.411-2.66l.254-1.134-.993.601c-3.271 1.98-6.482 3.849-9.788 4.94a5.171 5.171 0 01-1.623.263c-1.028 0-1.99-.317-2.707-.894-.775-.623-1.238-1.524-1.338-2.603-.128-1.373.416-2.877.896-4.203.103-.286.212-.576.32-.858.265-.7.54-1.425.745-2.168l.314-1.143-1.034.58a63.774 63.774 0 00-8.598 5.79 64.258 64.258 0 00-7.55 7.097c-.04.044-.115.103-.302.103-.384 0-.918-.256-1.226-.497-2.879-2.26-2.659-4.997-1.37-8.683a161.685 161.685 0 015.038-12.666C40.868 16.57 45.37 8.445 50.575.634c.049-.073.116-.14.287-.14.584 0 1.677.775 2.212 1.773.162.305.396.875.132 1.272A162.821 162.821 0 0041.654 23.9a162.826 162.826 0 00-4.635 10.743 161.452 161.452 0 00-1.782 4.818l.802.527c3.547-3.29 7.631-6.295 12.138-8.933 1.195-.699 2.356-1.326 3.439-1.326.773 0 1.495.326 2.208.996 1.29 1.214 1.654 2.897 1.148 5.296-.207.982-.579 1.96-.938 2.903-.235.62-.478 1.26-.679 1.907l-.276.89.893-.27c4.52-1.37 9.562-3.514 13.832-5.88l.125-.07.07-.124a19.195 19.195 0 011.858-2.764c.058-.072.15-.155.353-.155.703 0 1.836.922 2.285 1.862.162.338.302.808.046 1.126-1.64 2.035-2.779 4.313-3.387 6.77l-.192.774.778-.17c1.455-.32 2.85-1.142 3.97-1.802 1.622-.956 3.289-2.068 5.25-3.5 3.17-2.313 6.266-4.986 9.206-7.947a.6.6 0 01.449-.19c.512 0 1.226.495 1.78 1.234.45.602.695 1.262.594 1.604a132.514 132.514 0 01-3.221 9.579l-.668 1.766 1.448-1.21c2.672-2.236 5.925-3.942 9.07-5.592.967-.508 1.88-.987 2.773-1.48a.8.8 0 01.389-.096c.636 0 1.41.627 1.592 1.291.106.384-.016.666-.382.883-5.9 3.51-11.696 8.18-18.792 15.147l-.06.06-.039.078a133.96 133.96 0 01-14.013 22.796c-.12.159-.235.179-.33.179zm91.271-13.46c-.411 0-1.109-.366-1.7-.887-.612-.542-1.011-1.157-1.018-1.564-.114-7.041.836-14.245 2.905-22.023 1.693-6.367 4.104-13.043 7.589-21.013l.322-.735-.802.042A156.942 156.942 0 00146 18.605a.74.74 0 01-.141.012c-.459 0-1.105-.366-1.686-.957-.551-.56-.95-1.227-.992-1.662-.019-.198.024-.235.19-.267 8.614-1.666 17.305-2.633 25.832-2.875l.308-.008.128-.28c1.594-3.494 3.252-6.964 4.814-10.221.105-.218.249-.31.484-.31.649 0 1.683.734 2.209 1.572.29.457.384.868.26 1.127a856.467 856.467 0 00-3.48 7.32l-.334.715.789-.01a221.14 221.14 0 013.061-.023c2.937 0 6.791.07 10.558.627 3.827.564 7.015 1.54 9.748 2.978.766.402 1.831 1.427 1.754 2.225-.034.354-.19.507-.522.507-.213 0-.46-.07-.698-.194-3.95-2.08-8.28-2.513-12.74-2.802a155.203 155.203 0 00-12.803-.299c-.039 0-.074.002-.109.003l-.115.004-.313.005-.129.285c-3.9 8.604-6.584 15.658-8.447 22.198-2.373 8.33-3.468 16.004-3.348 23.458.004.219-.039.342-.081.384-.036.037-.113.044-.17.044zm-45.153-13.963c-.45 0-1.121-.476-1.67-1.182-.564-.728-.792-1.428-.717-1.718 1.023-4.009 3.028-7.851 4.659-10.75a.56.56 0 01.538-.319c.694 0 1.747.76 2.253 1.626.249.425.318.798.191 1.023l-.152.277.713.649a40.322 40.322 0 0110.796-5.25.987.987 0 01.295-.043c.716 0 1.65.67 2.128 1.524.148.263.456.928.143 1.437-1.399 2.276-2.561 4.55-3.513 6.473l-.656 1.324 1.322-.663c3.08-1.544 6.365-3.008 9.539-4.421a353.64 353.64 0 005.946-2.69l.09-.042.067-.074c1.731-1.909 3.989-3.687 5.894-4.64a.582.582 0 01.265-.056c.72 0 1.816.915 2.255 1.884.093.206.285.716.045.988l-.204.231.119.285c.093.227.152.451.174.667.395 3.783-.647 7.464-2.933 10.364-1.326 1.683-2.969 2.647-4.511 2.647-1.152 0-2.212-.529-3.151-1.57-1.439-1.596-1.806-3.533-1.092-5.754l.39-1.215-1.108.635c-2.055 1.178-4.06 2.422-6 3.625a62.87 62.87 0 00-1.572 1.02c-1.822 1.207-3.705 2.455-5.648 2.91-.223.051-.45.077-.676.077-.927 0-1.838-.442-2.497-1.21-.671-.784-.972-1.779-.825-2.729.197-1.277.689-2.669 1.504-4.254l.741-1.445-1.421.785a39.735 39.735 0 00-11.318 9.37.494.494 0 01-.403.204zm37.66-12.983l-1.057.924a17.227 17.227 0 00-2.08 2.162 15.75 15.75 0 00-1.964 3.11c-.273.573-.49 1.06-.659 1.575-.038.119-.067.297-.113.6-.02.128-.041.26-.063.385l-.229 1.318 1.032-.851c.198-.163.398-.307.592-.446.357-.254.727-.517 1.099-.915a12.464 12.464 0 002.173-3.221 12.93 12.93 0 001.026-3.258l.243-1.383zM3.852 47.48c-.149 0-.3-.012-.446-.035-.633-.099-1.526-.432-2.187-1.455-.692-1.072-.91-2.595-.556-3.881.745-2.704 2.458-5.681 4.954-8.606.092-.109.207-.157.37-.157.725 0 1.868.936 2.308 1.89.15.326.278.78.023 1.078-1.367 1.604-2.435 3.163-3.266 4.766-.05.097-.122.23-.205.384l-.066.12.773.597c.7-.655 1.347-1.368 1.972-2.059A44.3 44.3 0 018.7 38.858l3.79-3.868 3.867-3.948a.62.62 0 01.464-.208c.442 0 1.064.419 1.584 1.065.595.743.838 1.495.765 1.826-.483 2.183-.829 4.123-1.057 5.93-.02.154-.077.448-.145.789-.113.583-.27 1.382-.356 2.102l-.158 1.314.98-.887c1.63-1.474 3.69-5.148 4.284-6.24 1.387-2.557 2.518-5.379 3.361-8.39.06-.212.149-.25.303-.25.562 0 1.505.64 2.104 1.43.397.524.579 1.036.485 1.369-.95 3.393-2.299 6.577-4.007 9.466-.139.233-.282.483-.434.746-1.267 2.203-3.002 5.219-5.333 5.51a3.192 3.192 0 01-.4.025c-1.02 0-2.015-.506-2.798-1.429-.734-.865-1.2-2.018-1.243-3.085a21.95 21.95 0 01.066-2.7l.111-1.365-.958.978-3.68 3.756-.073.076c-.24.245-.498.522-.77.815-1.492 1.6-3.534 3.794-5.6 3.794z" fill="#fff"/><mask id="a" fill="#fff"><path d="M50.928.996c-5.163 7.76-9.633 15.833-13.287 23.993a161.528 161.528 0 00-5.022 12.628c-.467 1.336-.987 3.063-.86 4.57.12 1.415.777 2.546 2.07 3.56.232.182.657.386.907.392a64.76 64.76 0 017.556-7.094 64.285 64.285 0 018.665-5.834l2.066-1.158-.628 2.283c-.21.767-.49 1.503-.76 2.214-.106.279-.215.568-.317.85-.462 1.277-.986 2.726-.868 3.99.208 2.25 2.044 3.048 3.554 3.048.495 0 .988-.081 1.466-.239 3.138-1.035 6.208-2.793 9.331-4.678a20.08 20.08 0 01.662-2.159c-3.67 1.834-7.68 3.451-11.348 4.564l-1.785.54.552-1.78c.205-.664.452-1.31.69-1.937.367-.97.716-1.885.915-2.829.467-2.214.148-3.75-1.002-4.833-.626-.588-1.22-.861-1.87-.861-.96 0-2.055.593-3.188 1.257-4.476 2.619-8.53 5.603-12.052 8.869l-1.606-1.054c.57-1.62 1.166-3.232 1.788-4.834a162.96 162.96 0 014.649-10.775A163.304 163.304 0 0152.793 3.265c.084-.126.02-.433-.156-.765-.448-.835-1.325-1.437-1.709-1.504zM174.936 2.53l-.021.001a.333.333 0 00-.016.03c-1.561 3.254-3.218 6.724-4.811 10.211l-.255.562-.617.017c-8.412.238-16.986 1.185-25.485 2.815.103.265.348.688.772 1.124.554.572 1.091.831 1.356.831.016 0 .031 0 .047-.002a157.427 157.427 0 0121.391-2.63l1.602-.087-.643 1.471c-3.475 7.946-5.878 14.6-7.565 20.942-2.056 7.734-3.001 14.892-2.888 21.887.003.189.269.687.851 1.201.434.383.851.614 1.127.71-.106-7.463.995-15.143 3.368-23.474 1.871-6.564 4.562-13.64 8.472-22.266l.259-.57.625-.01.108-.004.109-.003h.007c4.284-.077 8.57.023 12.845.3 4.514.292 8.901.732 12.938 2.857.15.083.317.13.488.136a.6.6 0 00.009-.06c.043-.448-.71-1.326-1.493-1.739-2.682-1.411-5.818-2.369-9.589-2.925-3.734-.551-7.565-.623-10.485-.623-1.124 0-2.223.012-3.055.023l-1.579.02.669-1.428a858.018 858.018 0 013.482-7.325c.019-.05-.005-.314-.274-.714-.482-.72-1.336-1.277-1.749-1.277zM26.518 28.607c-.85 2.997-1.982 5.81-3.367 8.361-.601 1.11-2.698 4.845-4.385 6.371l-1.961 1.775.314-2.626c.09-.74.248-1.55.364-2.14.062-.317.12-.617.138-.754.23-1.824.58-3.778 1.064-5.974.032-.186-.188-.845-.735-1.492-.495-.585-.947-.798-1.13-.798-.027 0-.053 0-.11.059l-7.657 7.815c-.376.384-.757.804-1.161 1.25-.632.698-1.286 1.418-2 2.087l-1.546-1.194.065-.121c.083-.152.154-.281.201-.374.848-1.638 1.937-3.227 3.328-4.86.052-.06.035-.268-.095-.55-.409-.885-1.416-1.602-1.859-1.602h-.008c-2.442 2.865-4.114 5.77-4.84 8.4-.317 1.156-.123 2.522.496 3.48.45.699 1.072 1.114 1.848 1.235.12.019.245.029.37.029 1.85 0 3.807-2.103 5.237-3.637.275-.295.534-.574.779-.823l.26-.267 3.493-3.564 1.916-1.956-.222 2.728a21.615 21.615 0 00-.066 2.639c.04.96.462 2.002 1.127 2.786.398.469 1.242 1.255 2.421 1.255.111 0 .225-.007.337-.021 2.088-.262 3.82-3.274 4.966-5.266.153-.266.297-.516.436-.753 1.687-2.85 3.018-5.995 3.958-9.347.034-.119-.047-.465-.404-.936-.5-.663-1.196-1.114-1.572-1.214zm62.096 1.27c-.036 0-.056.001-.099.045-2.957 2.98-6.073 5.67-9.264 7.998-1.975 1.441-3.654 2.56-5.29 3.526-1.09.642-2.584 1.521-4.116 1.858l-1.555.341.382-1.546a17.514 17.514 0 011.173-3.293 172.431 172.431 0 00-3.296 1.972c-.143.711-.25 1.445-.315 2.187-.04.457.764 1.421 1.434 1.72a6.77 6.77 0 002.808.613c2.904 0 5.693-1.86 8.39-3.661l.148-.1a71.678 71.678 0 004.928-3.608l2.801-2.236-1.257 3.356a133.45 133.45 0 01-4.654 10.932l-.075.156-.123.121a197.52 197.52 0 00-2.096 2.094c-2.336 2.372-5.355 5.541-7.985 9.026-1.646 2.178-2.712 3.99-3.352 5.704-.812 2.166-.943 4.171-.4 6.13.046.148.359.663.87 1.18.524.528.894.695 1.04.728a133.47 133.47 0 0013.942-22.69l.075-.154.123-.12c3.255-3.195 6.192-5.866 8.978-8.163 3.413-2.815 6.653-5.121 9.906-7.057.204-.121.194-.198.158-.327-.121-.441-.705-.926-1.114-.927a.293.293 0 00-.151.034c-.896.495-1.812.976-2.782 1.485-3.121 1.638-6.35 3.332-8.981 5.533l-2.898 2.422 1.337-3.533c1.19-3.138 2.26-6.32 3.209-9.54.025-.111-.072-.621-.597-1.276-.485-.604-1.034-.93-1.302-.93zm64.39.31v.99a.129.129 0 00-.044.005c-1.306.655-2.788 1.711-4.141 2.932.631.388 1.124 1.032 1.291 1.775.063.282.076.558.041.821.321-.327.653-.641 1-.943l2.114-1.847-.488 2.764a13.467 13.467 0 01-1.064 3.382 12.973 12.973 0 01-2.261 3.35c-.406.433-.796.712-1.173.98-.195.14-.38.27-.564.423l-1.946 1.606c.678.551 1.409.83 2.181.83 1.387 0 2.89-.897 4.122-2.46 2.206-2.798 3.211-6.352 2.83-10.007a1.922 1.922 0 00-.141-.527l-.236-.57.398-.452c.02-.092-.039-.456-.404-.954-.484-.663-1.174-1.108-1.515-1.108v-.99zm-82.786 2.766a19.49 19.49 0 00-.643.848c.908.31 1.693 1.112 1.948 2.077l.016.064c.198-.274.403-.543.616-.806.054-.07.044-.287-.107-.604-.416-.866-1.399-1.57-1.83-1.58zm61.561.053c-.05 0-.1.006-.148.02a39.842 39.842 0 00-10.664 5.186l-1.424-1.299.064-.116.086-.156c.012-.057-.017-.349-.364-.805-.507-.665-1.259-1.112-1.645-1.112a.201.201 0 00-.066.008.197.197 0 00-.041.058c-1.617 2.87-3.599 6.672-4.609 10.623-.02.197.231.865.808 1.518.497.562.937.772 1.097.772a40.248 40.248 0 0111.482-9.511l2.842-1.572-1.483 2.89c-.789 1.538-1.265 2.88-1.455 4.104-.125.807.134 1.657.713 2.33.564.66 1.338 1.038 2.121 1.038.188 0 .376-.022.563-.065 1.856-.433 3.702-1.656 5.486-2.84a61.386 61.386 0 011.586-1.029c1.841-1.142 3.741-2.321 5.691-3.448.246-.674.574-1.364.978-2.058-.821.369-1.643.734-2.454 1.095-3.169 1.412-6.448 2.871-9.518 4.411l-2.644 1.328 1.312-2.65c.957-1.933 2.125-4.218 3.533-6.513.123-.197.066-.547-.151-.935-.386-.689-1.162-1.271-1.697-1.271l.001-.001zm16.777 5.575a70.703 70.703 0 00-4.487 2.356c-.516 1.912-.156 3.522 1.096 4.912.168.186.339.353.514.502l.43-2.464c.02-.121.041-.25.06-.377.053-.338.083-.522.134-.677.187-.572.437-1.123.681-1.634a16.2 16.2 0 011.571-2.618h.001zM50.862 0c1.365 0 3.652 2.467 2.755 3.813A161.728 161.728 0 0042.1 24.114a161.687 161.687 0 00-4.62 10.71 162.356 162.356 0 00-1.778 4.803c3.715-3.447 7.83-6.427 12.225-8.998 1.288-.754 2.49-1.394 3.688-1.394.841 0 1.682.316 2.548 1.131 1.656 1.558 1.734 3.666 1.292 5.76-.352 1.667-1.124 3.226-1.628 4.852 4.625-1.401 9.576-3.533 13.737-5.84a18.908 18.908 0 00-1.895 5.015c-3.183 1.927-6.459 3.854-9.889 4.987a5.705 5.705 0 01-1.777.287c-2.234 0-4.3-1.36-4.539-3.947-.137-1.483.428-3.046.924-4.418.356-.987.773-1.97 1.053-2.988a63.59 63.59 0 00-16.024 12.787c-.174.193-.412.267-.67.267-.553 0-1.2-.343-1.53-.603-3.247-2.547-2.762-5.722-1.534-9.236a161.847 161.847 0 015.054-12.705C40.516 16.143 45.035 8.054 50.162.36c.167-.251.413-.359.699-.359zm124.074 1.541c1.392 0 3.505 2.178 2.915 3.41a825.66 825.66 0 00-3.477 7.314 238.34 238.34 0 013.068-.022c7.036 0 14.467.467 20.535 3.662.849.447 2.123 1.618 2.017 2.71-.066.678-.498.955-1.016.955-.298 0-.625-.092-.927-.252-3.886-2.045-8.225-2.465-12.541-2.746a154.006 154.006 0 00-12.763-.297l-.224.007c-6.533 14.41-12.008 29.45-11.75 45.443.01.666-.299.931-.747.931-1.142 0-3.193-1.718-3.213-2.938-.245-15.18 4.524-29.493 10.536-43.24a155.86 155.86 0 00-21.255 2.612 1.24 1.24 0 01-.236.022c-1.786 0-4.346-3.526-2.581-3.867 8.545-1.653 17.211-2.637 25.911-2.884 1.571-3.441 3.197-6.85 4.818-10.228.201-.419.536-.592.93-.592zM26.381 27.597c1.258 0 3.441 2.09 3.066 3.428-.943 3.366-2.278 6.575-4.058 9.585-1.31 2.214-3.256 6.135-6.132 6.496-.155.02-.308.03-.46.03-2.518 0-4.438-2.616-4.536-4.99a22.514 22.514 0 01.068-2.761l-3.754 3.83c-1.608 1.643-4.05 4.759-6.724 4.759a3.56 3.56 0 01-.522-.04C.564 47.5-.456 44.303.185 41.975 1.07 38.762 3.1 35.69 5.239 33.18a.941.941 0 01.747-.33c1.473 0 3.748 2.565 2.708 3.785-1.236 1.448-2.327 2.98-3.203 4.672-.065.126-.162.304-.275.512 1.132-1.061 2.146-2.303 3.13-3.307l7.657-7.816a1.11 1.11 0 01.817-.357c1.383 0 3.08 2.37 2.832 3.493-.43 1.948-.798 3.905-1.049 5.885-.057.453-.366 1.76-.5 2.889 1.656-1.499 3.846-5.497 4.178-6.109 1.429-2.632 2.515-5.408 3.321-8.288.121-.432.41-.612.78-.612zm62.233 1.29c1.395 0 3.188 2.316 2.85 3.473a132.424 132.424 0 01-3.234 9.614c3.539-2.957 8.115-5.024 11.921-7.124a1.29 1.29 0 01.629-.158c1.44 0 3.057 2.146 1.462 3.095-6.85 4.073-13.006 9.487-18.697 15.076a134.184 134.184 0 01-14.066 22.88.875.875 0 01-.723.374c-1.144 0-2.709-1.919-2.909-2.64-1.31-4.727 1.14-9.021 3.916-12.696 2.445-3.24 5.226-6.236 8.07-9.124.695-.705 1.397-1.406 2.106-2.104a131.916 131.916 0 004.62-10.85 72.339 72.339 0 01-4.996 3.66c-2.826 1.885-5.826 3.926-9.087 3.926a7.793 7.793 0 01-3.211-.699c-.86-.383-2.11-1.656-2.016-2.71.082-.931.222-1.841.42-2.726 1.425-.861 2.831-1.725 4.224-2.516 1.597-.908.244-2.984-1.124-2.984-.218 0-.435.052-.641.168-.186.107-.375.212-.564.317a19.6 19.6 0 011.907-2.835.905.905 0 01.739-.34c1.448 0 3.724 2.543 2.715 3.795-1.58 1.962-2.698 4.18-3.291 6.578 1.379-.302 2.755-1.114 3.826-1.746 1.795-1.058 3.525-2.242 5.207-3.47 3.262-2.38 6.303-5.032 9.147-7.896.233-.236.507-.337.8-.337zm64.39 1.302c1.499 0 3.632 2.603 2.673 3.694.106.26.181.53.208.805.401 3.838-.636 7.676-3.035 10.72-1.337 1.697-3.109 2.837-4.9 2.837-1.208 0-2.423-.518-3.519-1.734-1.708-1.895-1.889-4.08-1.196-6.236a71.994 71.994 0 015.122-2.695c1.655-.78.522-2.866-.861-2.866-.196 0-.397.042-.596.136l-.421.198c1.917-2.115 4.24-3.85 6.038-4.75.15-.075.315-.11.487-.11zm-5.919 13.868c.575-.475 1.11-.745 1.645-1.317a11.996 11.996 0 002.087-3.094c.466-.996.797-2.05.985-3.133-.733.64-1.41 1.342-2.021 2.1a15.268 15.268 0 00-1.903 3.012c-.234.492-.465.997-.633 1.516-.045.133-.096.552-.16.916zm-15.305-12.04c1.598 0 3.551 2.32 2.693 3.715-1.303 2.12-2.416 4.26-3.492 6.432 5.034-2.524 10.512-4.785 15.499-7.117-1.443 1.593-2.657 3.4-3.244 5.227-2.022 1.159-4.006 2.387-5.987 3.617-2.247 1.392-4.746 3.379-7.369 3.99a3.435 3.435 0 01-.788.092c-2.256 0-4.166-2.222-3.811-4.509.227-1.477.809-2.958 1.551-4.405a39.278 39.278 0 00-11.177 9.253.979.979 0 01-.783.381c-1.343 0-3.145-2.424-2.866-3.516.972-3.809 2.785-7.456 4.707-10.872.226-.402.574-.57.97-.57 1.441 0 3.537 2.21 2.875 3.386l-.152.276a40.845 40.845 0 0110.929-5.316 1.51 1.51 0 01.443-.064h.002z"/></mask><path d="M50.928.996c-5.163 7.76-9.633 15.833-13.287 23.993a161.528 161.528 0 00-5.022 12.628c-.467 1.336-.987 3.063-.86 4.57.12 1.415.777 2.546 2.07 3.56.232.182.657.386.907.392a64.76 64.76 0 017.556-7.094 64.285 64.285 0 018.665-5.834l2.066-1.158-.628 2.283c-.21.767-.49 1.503-.76 2.214-.106.279-.215.568-.317.85-.462 1.277-.986 2.726-.868 3.99.208 2.25 2.044 3.048 3.554 3.048.495 0 .988-.081 1.466-.239 3.138-1.035 6.208-2.793 9.331-4.678a20.08 20.08 0 01.662-2.159c-3.67 1.834-7.68 3.451-11.348 4.564l-1.785.54.552-1.78c.205-.664.452-1.31.69-1.937.367-.97.716-1.885.915-2.829.467-2.214.148-3.75-1.002-4.833-.626-.588-1.22-.861-1.87-.861-.96 0-2.055.593-3.188 1.257-4.476 2.619-8.53 5.603-12.052 8.869l-1.606-1.054c.57-1.62 1.166-3.232 1.788-4.834a162.96 162.96 0 014.649-10.775A163.304 163.304 0 0152.793 3.265c.084-.126.02-.433-.156-.765-.448-.835-1.325-1.437-1.709-1.504zM174.936 2.53l-.021.001a.333.333 0 00-.016.03c-1.561 3.254-3.218 6.724-4.811 10.211l-.255.562-.617.017c-8.412.238-16.986 1.185-25.485 2.815.103.265.348.688.772 1.124.554.572 1.091.831 1.356.831.016 0 .031 0 .047-.002a157.427 157.427 0 0121.391-2.63l1.602-.087-.643 1.471c-3.475 7.946-5.878 14.6-7.565 20.942-2.056 7.734-3.001 14.892-2.888 21.887.003.189.269.687.851 1.201.434.383.851.614 1.127.71-.106-7.463.995-15.143 3.368-23.474 1.871-6.564 4.562-13.64 8.472-22.266l.259-.57.625-.01.108-.004.109-.003h.007c4.284-.077 8.57.023 12.845.3 4.514.292 8.901.732 12.938 2.857.15.083.317.13.488.136a.6.6 0 00.009-.06c.043-.448-.71-1.326-1.493-1.739-2.682-1.411-5.818-2.369-9.589-2.925-3.734-.551-7.565-.623-10.485-.623-1.124 0-2.223.012-3.055.023l-1.579.02.669-1.428a858.018 858.018 0 013.482-7.325c.019-.05-.005-.314-.274-.714-.482-.72-1.336-1.277-1.749-1.277v0zM26.518 28.607c-.85 2.997-1.982 5.81-3.367 8.361-.601 1.11-2.698 4.845-4.385 6.371l-1.961 1.775.314-2.626c.09-.74.248-1.55.364-2.14.062-.317.12-.617.138-.754.23-1.824.58-3.778 1.064-5.974.032-.186-.188-.845-.735-1.492-.495-.585-.947-.798-1.13-.798-.027 0-.053 0-.11.059l-7.657 7.815c-.376.384-.757.804-1.161 1.25-.632.698-1.286 1.418-2 2.087l-1.546-1.194.065-.121c.083-.152.154-.281.201-.374.848-1.638 1.937-3.227 3.328-4.86.052-.06.035-.268-.095-.55-.409-.885-1.416-1.602-1.859-1.602h-.008c-2.442 2.865-4.114 5.77-4.84 8.4-.317 1.156-.123 2.522.496 3.48.45.699 1.072 1.114 1.848 1.235.12.019.245.029.37.029 1.85 0 3.807-2.103 5.237-3.637.275-.295.534-.574.779-.823l.26-.267 3.493-3.564 1.916-1.956-.222 2.728a21.615 21.615 0 00-.066 2.639c.04.96.462 2.002 1.127 2.786.398.469 1.242 1.255 2.421 1.255.111 0 .225-.007.337-.021 2.088-.262 3.82-3.274 4.966-5.266.153-.266.297-.516.436-.753 1.687-2.85 3.018-5.995 3.958-9.347.034-.119-.047-.465-.404-.936-.5-.663-1.196-1.114-1.572-1.214v0zm62.096 1.27c-.036 0-.056.001-.099.045-2.957 2.98-6.073 5.67-9.264 7.998-1.975 1.441-3.654 2.56-5.29 3.526-1.09.642-2.584 1.521-4.116 1.858l-1.555.341.382-1.546a17.514 17.514 0 011.173-3.293 172.431 172.431 0 00-3.296 1.972c-.143.711-.25 1.445-.315 2.187-.04.457.764 1.421 1.434 1.72a6.77 6.77 0 002.808.613c2.904 0 5.693-1.86 8.39-3.661l.148-.1a71.678 71.678 0 004.928-3.608l2.801-2.236-1.257 3.356a133.45 133.45 0 01-4.654 10.932l-.075.156-.123.121a197.52 197.52 0 00-2.096 2.094c-2.336 2.372-5.355 5.541-7.985 9.026-1.646 2.178-2.712 3.99-3.352 5.704-.812 2.166-.943 4.171-.4 6.13.046.148.359.663.87 1.18.524.528.894.695 1.04.728a133.47 133.47 0 0013.942-22.69l.075-.154.123-.12c3.255-3.195 6.192-5.866 8.978-8.163 3.413-2.815 6.653-5.121 9.906-7.057.204-.121.194-.198.158-.327-.121-.441-.705-.926-1.114-.927a.293.293 0 00-.151.034c-.896.495-1.812.976-2.782 1.485-3.121 1.638-6.35 3.332-8.981 5.533l-2.898 2.422 1.337-3.533c1.19-3.138 2.26-6.32 3.209-9.54.025-.111-.072-.621-.597-1.276-.485-.604-1.034-.93-1.302-.93v0zm64.39.31v.99a.129.129 0 00-.044.005c-1.306.655-2.788 1.711-4.141 2.932.631.388 1.124 1.032 1.291 1.775.063.282.076.558.041.821.321-.327.653-.641 1-.943l2.114-1.847-.488 2.764a13.467 13.467 0 01-1.064 3.382 12.973 12.973 0 01-2.261 3.35c-.406.433-.796.712-1.173.98-.195.14-.38.27-.564.423l-1.946 1.606c.678.551 1.409.83 2.181.83 1.387 0 2.89-.897 4.122-2.46 2.206-2.798 3.211-6.352 2.83-10.007a1.922 1.922 0 00-.141-.527l-.236-.57.398-.452c.02-.092-.039-.456-.404-.954-.484-.663-1.174-1.108-1.515-1.108v-.99 0zm-82.786 2.766a19.49 19.49 0 00-.643.848c.908.31 1.693 1.112 1.948 2.077l.016.064c.198-.274.403-.543.616-.806.054-.07.044-.287-.107-.604-.416-.866-1.399-1.57-1.83-1.58zm61.561.053c-.05 0-.1.006-.148.02a39.842 39.842 0 00-10.664 5.186l-1.424-1.299.064-.116.086-.156c.012-.057-.017-.349-.364-.805-.507-.665-1.259-1.112-1.645-1.112a.201.201 0 00-.066.008.197.197 0 00-.041.058c-1.617 2.87-3.599 6.672-4.609 10.623-.02.197.231.865.808 1.518.497.562.937.772 1.097.772a40.248 40.248 0 0111.482-9.511l2.842-1.572-1.483 2.89c-.789 1.538-1.265 2.88-1.455 4.104-.125.807.134 1.657.713 2.33.564.66 1.338 1.038 2.121 1.038.188 0 .376-.022.563-.065 1.856-.433 3.702-1.656 5.486-2.84a61.386 61.386 0 011.586-1.029c1.841-1.142 3.741-2.321 5.691-3.448.246-.674.574-1.364.978-2.058-.821.369-1.643.734-2.454 1.095-3.169 1.412-6.448 2.871-9.518 4.411l-2.644 1.328 1.312-2.65c.957-1.933 2.125-4.218 3.533-6.513.123-.197.066-.547-.151-.935-.386-.689-1.162-1.271-1.697-1.271l.001-.001zm16.777 5.575a70.703 70.703 0 00-4.487 2.356c-.516 1.912-.156 3.522 1.096 4.912.168.186.339.353.514.502l.43-2.464c.02-.121.041-.25.06-.377.053-.338.083-.522.134-.677.187-.572.437-1.123.681-1.634a16.2 16.2 0 011.571-2.618h.001zM50.862 0c1.365 0 3.652 2.467 2.755 3.813A161.728 161.728 0 0042.1 24.114a161.687 161.687 0 00-4.62 10.71 162.356 162.356 0 00-1.778 4.803c3.715-3.447 7.83-6.427 12.225-8.998 1.288-.754 2.49-1.394 3.688-1.394.841 0 1.682.316 2.548 1.131 1.656 1.558 1.734 3.666 1.292 5.76-.352 1.667-1.124 3.226-1.628 4.852 4.625-1.401 9.576-3.533 13.737-5.84a18.908 18.908 0 00-1.895 5.015c-3.183 1.927-6.459 3.854-9.889 4.987a5.705 5.705 0 01-1.777.287c-2.234 0-4.3-1.36-4.539-3.947-.137-1.483.428-3.046.924-4.418.356-.987.773-1.97 1.053-2.988a63.59 63.59 0 00-16.024 12.787c-.174.193-.412.267-.67.267-.553 0-1.2-.343-1.53-.603-3.247-2.547-2.762-5.722-1.534-9.236a161.847 161.847 0 015.054-12.705C40.516 16.143 45.035 8.054 50.162.36c.167-.251.413-.359.699-.359h0zm124.074 1.541c1.392 0 3.505 2.178 2.915 3.41a825.66 825.66 0 00-3.477 7.314 238.34 238.34 0 013.068-.022c7.036 0 14.467.467 20.535 3.662.849.447 2.123 1.618 2.017 2.71-.066.678-.498.955-1.016.955-.298 0-.625-.092-.927-.252-3.886-2.045-8.225-2.465-12.541-2.746a154.006 154.006 0 00-12.763-.297l-.224.007c-6.533 14.41-12.008 29.45-11.75 45.443.01.666-.299.931-.747.931-1.142 0-3.193-1.718-3.213-2.938-.245-15.18 4.524-29.493 10.536-43.24a155.86 155.86 0 00-21.255 2.612 1.24 1.24 0 01-.236.022c-1.786 0-4.346-3.526-2.581-3.867 8.545-1.653 17.211-2.637 25.911-2.884 1.571-3.441 3.197-6.85 4.818-10.228.201-.419.536-.592.93-.592zM26.381 27.597c1.258 0 3.441 2.09 3.066 3.428-.943 3.366-2.278 6.575-4.058 9.585-1.31 2.214-3.256 6.135-6.132 6.496-.155.02-.308.03-.46.03-2.518 0-4.438-2.616-4.536-4.99a22.514 22.514 0 01.068-2.761l-3.754 3.83c-1.608 1.643-4.05 4.759-6.724 4.759a3.56 3.56 0 01-.522-.04C.564 47.5-.456 44.303.185 41.975 1.07 38.762 3.1 35.69 5.239 33.18a.941.941 0 01.747-.33c1.473 0 3.748 2.565 2.708 3.785-1.236 1.448-2.327 2.98-3.203 4.672-.065.126-.162.304-.275.512 1.132-1.061 2.146-2.303 3.13-3.307l7.657-7.816a1.11 1.11 0 01.817-.357c1.383 0 3.08 2.37 2.832 3.493-.43 1.948-.798 3.905-1.049 5.885-.057.453-.366 1.76-.5 2.889 1.656-1.499 3.846-5.497 4.178-6.109 1.429-2.632 2.515-5.408 3.321-8.288.121-.432.41-.612.78-.612zm62.233 1.29c1.395 0 3.188 2.316 2.85 3.473a132.424 132.424 0 01-3.234 9.614c3.539-2.957 8.115-5.024 11.921-7.124a1.29 1.29 0 01.629-.158c1.44 0 3.057 2.146 1.462 3.095-6.85 4.073-13.006 9.487-18.697 15.076a134.184 134.184 0 01-14.066 22.88.875.875 0 01-.723.374c-1.144 0-2.709-1.919-2.909-2.64-1.31-4.727 1.14-9.021 3.916-12.696 2.445-3.24 5.226-6.236 8.07-9.124.695-.705 1.397-1.406 2.106-2.104a131.916 131.916 0 004.62-10.85 72.339 72.339 0 01-4.996 3.66c-2.826 1.885-5.826 3.926-9.087 3.926a7.793 7.793 0 01-3.211-.699c-.86-.383-2.11-1.656-2.016-2.71.082-.931.222-1.841.42-2.726 1.425-.861 2.831-1.725 4.224-2.516 1.597-.908.244-2.984-1.124-2.984-.218 0-.435.052-.641.168-.186.107-.375.212-.564.317a19.6 19.6 0 011.907-2.835.905.905 0 01.739-.34c1.448 0 3.724 2.543 2.715 3.795-1.58 1.962-2.698 4.18-3.291 6.578 1.379-.302 2.755-1.114 3.826-1.746 1.795-1.058 3.525-2.242 5.207-3.47 3.262-2.38 6.303-5.032 9.147-7.896.233-.236.507-.337.8-.337v0zm64.39 1.302c1.499 0 3.632 2.603 2.673 3.694.106.26.181.53.208.805.401 3.838-.636 7.676-3.035 10.72-1.337 1.697-3.109 2.837-4.9 2.837-1.208 0-2.423-.518-3.519-1.734-1.708-1.895-1.889-4.08-1.196-6.236a71.994 71.994 0 015.122-2.695c1.655-.78.522-2.866-.861-2.866-.196 0-.397.042-.596.136l-.421.198c1.917-2.115 4.24-3.85 6.038-4.75.15-.075.315-.11.487-.11zm-5.919 13.868c.575-.475 1.11-.745 1.645-1.317a11.996 11.996 0 002.087-3.094c.466-.996.797-2.05.985-3.133-.733.64-1.41 1.342-2.021 2.1a15.268 15.268 0 00-1.903 3.012c-.234.492-.465.997-.633 1.516-.045.133-.096.552-.16.916zm-15.305-12.04c1.598 0 3.551 2.32 2.693 3.715-1.303 2.12-2.416 4.26-3.492 6.432 5.034-2.524 10.512-4.785 15.499-7.117-1.443 1.593-2.657 3.4-3.244 5.227-2.022 1.159-4.006 2.387-5.987 3.617-2.247 1.392-4.746 3.379-7.369 3.99a3.435 3.435 0 01-.788.092c-2.256 0-4.166-2.222-3.811-4.509.227-1.477.809-2.958 1.551-4.405a39.278 39.278 0 00-11.177 9.253.979.979 0 01-.783.381c-1.343 0-3.145-2.424-2.866-3.516.972-3.809 2.785-7.456 4.707-10.872.226-.402.574-.57.97-.57 1.441 0 3.537 2.21 2.875 3.386l-.152.276a40.845 40.845 0 0110.929-5.316 1.51 1.51 0 01.443-.064h.002z" fill="#fff" stroke="#fff" stroke-width="2" mask="url(#a)"/><path d="M178.275 51.928c-.604 0-1.164-.363-1.539-.995a2.68 2.68 0 01-.386-1.387c0-.599.219-1.158.636-1.615.228-.224.511-.342.822-.342.683 0 1.361.533 1.687 1.327.194.466.282.95.282 1.222 0 .56-.182 1.024-.539 1.38l-.004.005-.005.005a1.297 1.297 0 01-.955.399h.001zm1.814-5.058c-.107 0-.323-.096-.611-.366-.268-.27-.715-.984-.715-1.966 0-.634.138-1.287.413-1.94.837-1.8 2.428-3.243 5.672-5.147 2.815-1.637 5.161-4.14 6.436-6.865l.001-.002.001-.003c.417-.918.864-2.352.864-3.62 0-1.119-.477-2.316-1.816-2.316-.815 0-2.181.436-4.055 2.515-1.344 1.49-2.68 3.537-3.762 5.768-.258.475-.41.557-.437.568-.021-.007-.166-.07-.438-.476-.283-.447-.466-1.127-.466-1.733 0-1.101.438-2.434 1.2-3.653.834-1.348 1.933-2.476 3.18-3.265 1.233-.78 2.554-1.193 3.822-1.193 1.042 0 2.093.295 2.963.83a5.515 5.515 0 012.371 4.55c0 1.22-.339 2.616-.954 3.929-1.638 3.316-5.005 5.446-8.315 7.343-3.499 2-4.698 5.033-5.102 6.672-.026.084-.124.37-.252.37z" fill="#fff"/><path d="M176.354 49.546s0 0 0 0 0 0 0 0z" fill="#fff" stroke="#fff"/></svg>